C:\GBW_MyPrograms\KinderuniversiteitApp\Resultaten\Ellis_v10102025\Reus\Reus_v6.mot
version=1
nRows=14
nColumns=29
inDegrees=yes
endheader
                time	         pelvis_tilt	           pelvis_tx	           pelvis_ty	       hip_flexion_l	       hip_flexion_r	        knee_angle_l	        knee_angle_r	       ankle_angle_l	       ankle_angle_r	    lumbar_extension	hamstrings_r/activation	bifemsh_r/activation	glut_max_r/activation	iliopsoas_r/activation	rect_fem_r/activation	  vasti_r/activation	gastroc_r/activation	 soleus_r/activation	tib_ant_r/activation	hamstrings_l/activation	bifemsh_l/activation	glut_max_l/activation	iliopsoas_l/activation	rect_fem_l/activation	  vasti_l/activation	gastroc_l/activation	 soleus_l/activation	tib_ant_l/activation	
          0.00000000	         -8.98026889	          0.00000000	          0.76310052	        -13.76753035	        -12.99680691	         12.34788770	          9.20908916	        -32.55583802	        -33.63522725	         -5.27916284	          0.40793726	          0.44816721	          0.54899903	          0.40901413	          0.40826468	          0.47667122	          0.40734000	          0.39845419	          0.40801525	          0.40811104	          0.44876879	          0.54496682	          0.40787948	          0.40797867	          0.56364715	          0.40741762	          0.40958621	          0.40790540	
          0.00200000	         -8.97111166	          0.01710978	          0.76286878	        -13.60956329	        -12.97942021	         12.29627434	          9.19130028	        -32.45557547	        -33.59549729	         -5.27912365	          0.40815770	          0.44843817	          0.55099629	          0.40899133	          0.40831431	          0.47523497	          0.40763006	          0.40213761	          0.40808213	          0.40822257	          0.44888387	          0.54404761	          0.40800882	          0.40811294	          0.56775418	          0.40756308	          0.40965924	          0.40801201	
          0.00400000	         -8.95508993	          0.03210786	          0.76234451	        -13.45009579	        -12.99755339	         11.95920805	          9.23823425	        -32.30220011	        -33.54501134	         -5.27961434	          0.40837773	          0.44867503	          0.55332393	          0.40894142	          0.40834220	          0.47143067	          0.40787648	          0.40547554	          0.40812881	          0.40826823	          0.44905468	          0.54116731	          0.40814997	          0.40823018	          0.54928852	          0.40772244	          0.40986214	          0.40808647	
          0.00600000	         -8.93822957	          0.04525422	          0.76175992	        -13.35790597	        -13.05352584	         11.91224568	          9.30021432	        -32.12034388	        -33.49775204	         -5.27939063	          0.40859353	          0.44884650	          0.55617556	          0.40886757	          0.40834863	          0.47316324	          0.40807805	          0.40863628	          0.40816057	          0.40829139	          0.44921711	          0.53732094	          0.40828351	          0.40833055	          0.52465316	          0.40787946	          0.41018783	          0.40813604	
          0.00800000	         -8.91715644	          0.05676418	          0.76124768	        -13.29701186	        -13.16657839	         11.86578949	          9.44288699	        -31.94290238	        -33.44932061	         -5.27881394	          0.40877535	          0.44894381	          0.55808171	          0.40878461	          0.40836005	          0.48524280	          0.40823432	          0.41124038	          0.40818555	          0.40825748	          0.44927161	          0.53351795	          0.40841312	          0.40842684	          0.51105824	          0.40804688	          0.41091075	          0.40814600	
          0.01000000	         -8.93258738	          0.06682016	          0.76105883	        -13.24411682	        -13.31500099	         11.67483638	          9.56885523	        -31.74843959	        -33.38836710	         -5.27842641	          0.40883083	          0.44894805	          0.55764008	          0.40873077	          0.40840278	          0.51351528	          0.40831895	          0.41257510	          0.40821109	          0.40820666	          0.44918588	          0.53072173	          0.40851129	          0.40851555	          0.53292456	          0.40819961	          0.41194975	          0.40812852	
          0.01200000	         -8.93886003	          0.07560135	          0.76111761	        -13.22105433	        -13.41269386	         11.60835554	          9.47589538	        -31.56474465	        -33.31813680	         -5.27940904	          0.40887022	          0.44891529	          0.55882457	          0.40869262	          0.40841225	          0.54467759	          0.40836220	          0.41288371	          0.40823913	          0.40815159	          0.44913592	          0.52899769	          0.40859452	          0.40859189	          0.53589359	          0.40832749	          0.41284876	          0.40810374	
          0.01400000	         -8.95093956	          0.08322990	          0.76116712	        -13.19454833	        -13.53168314	         11.51166018	          9.48552422	        -31.38432039	        -33.26740537	         -5.28054306	          0.40885604	          0.44889121	          0.55710012	          0.40865475	          0.40844851	          0.57088356	          0.40836454	          0.41218953	          0.40826484	          0.40812981	          0.44907361	          0.52671808	          0.40866170	          0.40865923	          0.53349276	          0.40845270	          0.41367608	          0.40807469	
          0.01600000	         -8.96453711	          0.08981417	          0.76117206	        -13.16896577	        -13.64207559	         11.44805871	          9.48687518	        -31.21677200	        -33.22822670	         -5.28165578	          0.40882381	          0.44896537	          0.55444316	          0.40864646	          0.40846628	          0.57269156	          0.40834466	          0.40968590	          0.40830353	          0.40809756	          0.44894990	          0.52592292	          0.40871834	          0.40872340	          0.54345122	          0.40855339	          0.41446235	          0.40804067	
          0.01800000	         -8.97106510	          0.09545008	          0.76114877	        -13.14442552	        -13.77136300	         11.35986927	          9.57208710	        -31.05930419	        -33.20499888	         -5.28263667	          0.40878478	          0.44911862	          0.55158512	          0.40865285	          0.40848074	          0.55597209	          0.40830515	          0.40559361	          0.40835552	          0.40808481	          0.44877808	          0.52709095	          0.40875501	          0.40878585	          0.56350232	          0.40863229	          0.41519000	          0.40800401	
          0.02000000	         -8.97020682	          0.10021517	          0.76113259	        -13.12563276	        -13.91526530	         11.29738047	          9.71666885	        -30.92698470	        -33.19362957	         -5.28297049	          0.40874227	          0.44930756	          0.54742018	          0.40866113	          0.40849653	          0.53336822	          0.40824546	          0.40055929	          0.40841462	          0.40809929	          0.44864503	          0.52775648	          0.40877407	          0.40883855	          0.56903446	          0.40868528	          0.41564404	          0.40797490	
          0.02200000	         -8.97501064	          0.10416510	          0.76109717	        -13.12009818	        -14.03720334	         11.28078826	          9.81380305	        -30.82178996	        -33.18715139	         -5.28229999	          0.40872493	          0.44944528	          0.54589139	          0.40866264	          0.40849779	          0.51754411	          0.40816035	          0.39501248	          0.40847879	          0.40817112	          0.44857482	          0.53055367	          0.40877714	          0.40887059	          0.55856230	          0.40870444	          0.41559694	          0.40796820	
          0.02400000	         -8.96949168	          0.10734353	          0.76109039	        -13.13483534	        -14.15933190	         11.40008357	          9.92558001	        -30.74745479	        -33.18102450	         -5.28083882	          0.40868828	          0.44947811	          0.54476478	          0.40865592	          0.40851725	          0.51555937	          0.40804898	          0.38962348	          0.40854223	          0.40825605	          0.44856395	          0.53247714	          0.40877918	          0.40889519	          0.53723860	          0.40869062	          0.41510714	          0.40798303	
          0.02600001	         -8.97282137	          0.10977652	          0.76091191	        -13.13668483	        -14.27381205	         11.34206895	         10.04248464	        -30.67078391	        -33.17088596	         -5.27912685	          0.40862163	          0.44947164	          0.54263607	          0.40864991	          0.40854943	          0.52147454	          0.40790908	          0.38389163	          0.40860857	          0.40830703	          0.44851155	          0.53318182	          0.40880866	          0.40894200	          0.52537525	          0.40867427	          0.41471749	          0.40799767	
